<?xml version="1.0" encoding="UTF-8" standalone="no"?>
<!DOCTYPE svg PUBLIC "-//W3C//DTD SVG 1.1//EN"
 "http://www.w3.org/Graphics/SVG/1.1/DTD/svg11.dtd">
<!-- Generated by graphviz version 12.2.1 (20241206.2353)
 -->
<!-- Title: G Pages: 1 -->
<svg width="726pt" height="571pt"
 viewBox="0.00 0.00 725.70 570.95" xmlns="http://www.w3.org/2000/svg" xmlns:xlink="http://www.w3.org/1999/xlink">
<g id="graph0" class="graph" transform="scale(1 1) rotate(0) translate(21.6 549.35)">
<title>G</title>
<polygon fill="#111111" stroke="none" points="-21.6,21.6 -21.6,-549.35 704.1,-549.35 704.1,21.6 -21.6,21.6"/>
<!-- context/AuthContext.jsx -->
<g id="node1" class="node">
<title>context/AuthContext.jsx</title>
<path fill="none" stroke="#c6c5fe" d="M434.33,-149.75C434.33,-149.75 292.42,-149.75 292.42,-149.75 288.46,-149.75 284.5,-145.79 284.5,-141.83 284.5,-141.83 284.5,-133.92 284.5,-133.92 284.5,-129.96 288.46,-126 292.42,-126 292.42,-126 434.33,-126 434.33,-126 438.29,-126 442.25,-129.96 442.25,-133.92 442.25,-133.92 442.25,-141.83 442.25,-141.83 442.25,-145.79 438.29,-149.75 434.33,-149.75"/>
<text text-anchor="middle" x="363.38" y="-132.45" font-family="Arial" font-size="14.00" fill="#c6c5fe">context/AuthContext.jsx</text>
</g>
<!-- utils/storageUtils.js -->
<g id="node2" class="node">
<title>utils/storageUtils.js</title>
<path fill="none" stroke="#cfffac" d="M654.71,-149.75C654.71,-149.75 542.04,-149.75 542.04,-149.75 538.08,-149.75 534.12,-145.79 534.12,-141.83 534.12,-141.83 534.12,-133.92 534.12,-133.92 534.12,-129.96 538.08,-126 542.04,-126 542.04,-126 654.71,-126 654.71,-126 658.67,-126 662.62,-129.96 662.62,-133.92 662.62,-133.92 662.62,-141.83 662.62,-141.83 662.62,-145.79 658.67,-149.75 654.71,-149.75"/>
<text text-anchor="middle" x="598.38" y="-132.45" font-family="Arial" font-size="14.00" fill="#cfffac">utils/storageUtils.js</text>
</g>
<!-- context/AuthContext.jsx&#45;&gt;utils/storageUtils.js -->
<g id="edge1" class="edge">
<title>context/AuthContext.jsx&#45;&gt;utils/storageUtils.js</title>
<path fill="none" stroke="#757575" d="M442.61,-137.88C468.29,-137.88 496.76,-137.88 522.21,-137.88"/>
<polygon fill="#757575" stroke="#757575" points="522.15,-141.38 532.15,-137.88 522.15,-134.38 522.15,-141.38"/>
</g>
<!-- data/recommendations.js -->
<g id="node3" class="node">
<title>data/recommendations.js</title>
<path fill="none" stroke="#cfffac" d="M674.58,-34.75C674.58,-34.75 522.17,-34.75 522.17,-34.75 518.21,-34.75 514.25,-30.79 514.25,-26.83 514.25,-26.83 514.25,-18.92 514.25,-18.92 514.25,-14.96 518.21,-11 522.17,-11 522.17,-11 674.58,-11 674.58,-11 678.54,-11 682.5,-14.96 682.5,-18.92 682.5,-18.92 682.5,-26.83 682.5,-26.83 682.5,-30.79 678.54,-34.75 674.58,-34.75"/>
<text text-anchor="middle" x="598.38" y="-17.45" font-family="Arial" font-size="14.00" fill="#cfffac">data/recommendations.js</text>
</g>
<!-- data/trips.js -->
<g id="node4" class="node">
<title>data/trips.js</title>
<path fill="none" stroke="#cfffac" d="M140.83,-275.75C140.83,-275.75 71.67,-275.75 71.67,-275.75 67.71,-275.75 63.75,-271.79 63.75,-267.83 63.75,-267.83 63.75,-259.92 63.75,-259.92 63.75,-255.96 67.71,-252 71.67,-252 71.67,-252 140.83,-252 140.83,-252 144.79,-252 148.75,-255.96 148.75,-259.92 148.75,-259.92 148.75,-267.83 148.75,-267.83 148.75,-271.79 144.79,-275.75 140.83,-275.75"/>
<text text-anchor="middle" x="106.25" y="-258.45" font-family="Arial" font-size="14.00" fill="#cfffac">data/trips.js</text>
</g>
<!-- hooks/useChat.js -->
<g id="node5" class="node">
<title>hooks/useChat.js</title>
<path fill="none" stroke="#c6c5fe" d="M158.08,-233.75C158.08,-233.75 54.42,-233.75 54.42,-233.75 50.46,-233.75 46.5,-229.79 46.5,-225.83 46.5,-225.83 46.5,-217.92 46.5,-217.92 46.5,-213.96 50.46,-210 54.42,-210 54.42,-210 158.08,-210 158.08,-210 162.04,-210 166,-213.96 166,-217.92 166,-217.92 166,-225.83 166,-225.83 166,-229.79 162.04,-233.75 158.08,-233.75"/>
<text text-anchor="middle" x="106.25" y="-216.45" font-family="Arial" font-size="14.00" fill="#c6c5fe">hooks/useChat.js</text>
</g>
<!-- hooks/useChat.js&#45;&gt;context/AuthContext.jsx -->
<g id="edge2" class="edge">
<title>hooks/useChat.js&#45;&gt;context/AuthContext.jsx</title>
<path fill="none" stroke="#757575" d="M166.28,-217.16C182.06,-214.05 198.59,-209.02 212.5,-200.88 233.72,-188.46 227.19,-171.14 248.5,-158.88 256.16,-154.47 264.54,-150.96 273.18,-148.16"/>
<polygon fill="#757575" stroke="#757575" points="274.11,-151.53 282.76,-145.41 272.18,-144.8 274.11,-151.53"/>
</g>
<!-- utils/chatLogic.js -->
<g id="node6" class="node">
<title>utils/chatLogic.js</title>
<path fill="none" stroke="#c6c5fe" d="M412.96,-191.75C412.96,-191.75 313.79,-191.75 313.79,-191.75 309.83,-191.75 305.88,-187.79 305.88,-183.83 305.88,-183.83 305.88,-175.92 305.88,-175.92 305.88,-171.96 309.83,-168 313.79,-168 313.79,-168 412.96,-168 412.96,-168 416.92,-168 420.88,-171.96 420.88,-175.92 420.88,-175.92 420.88,-183.83 420.88,-183.83 420.88,-187.79 416.92,-191.75 412.96,-191.75"/>
<text text-anchor="middle" x="363.38" y="-174.45" font-family="Arial" font-size="14.00" fill="#c6c5fe">utils/chatLogic.js</text>
</g>
<!-- hooks/useChat.js&#45;&gt;utils/chatLogic.js -->
<g id="edge3" class="edge">
<title>hooks/useChat.js&#45;&gt;utils/chatLogic.js</title>
<path fill="none" stroke="#757575" d="M166.42,-212.13C204.69,-205.83 254.61,-197.62 294.49,-191.05"/>
<polygon fill="#757575" stroke="#757575" points="294.92,-194.53 304.22,-189.45 293.79,-187.62 294.92,-194.53"/>
</g>
<!-- utils/chatUtils.js -->
<g id="node7" class="node">
<title>utils/chatUtils.js</title>
<path fill="none" stroke="#cfffac" d="M644.96,-232.75C644.96,-232.75 551.79,-232.75 551.79,-232.75 547.83,-232.75 543.88,-228.79 543.88,-224.83 543.88,-224.83 543.88,-216.92 543.88,-216.92 543.88,-212.96 547.83,-209 551.79,-209 551.79,-209 644.96,-209 644.96,-209 648.92,-209 652.88,-212.96 652.88,-216.92 652.88,-216.92 652.88,-224.83 652.88,-224.83 652.88,-228.79 648.92,-232.75 644.96,-232.75"/>
<text text-anchor="middle" x="598.38" y="-215.45" font-family="Arial" font-size="14.00" fill="#cfffac">utils/chatUtils.js</text>
</g>
<!-- hooks/useChat.js&#45;&gt;utils/chatUtils.js -->
<g id="edge4" class="edge">
<title>hooks/useChat.js&#45;&gt;utils/chatUtils.js</title>
<path fill="none" stroke="#757575" d="M166.48,-232.67C191.67,-236.74 221.43,-240.87 248.5,-242.88 350.33,-250.4 376.56,-252.19 478.25,-242.88 495.86,-241.26 514.75,-238.34 532.19,-235.13"/>
<polygon fill="#757575" stroke="#757575" points="532.75,-238.59 541.92,-233.28 531.44,-231.71 532.75,-238.59"/>
</g>
<!-- utils/userUtils.js -->
<g id="node8" class="node">
<title>utils/userUtils.js</title>
<path fill="none" stroke="#cfffac" d="M410.33,-233.75C410.33,-233.75 316.42,-233.75 316.42,-233.75 312.46,-233.75 308.5,-229.79 308.5,-225.83 308.5,-225.83 308.5,-217.92 308.5,-217.92 308.5,-213.96 312.46,-210 316.42,-210 316.42,-210 410.33,-210 410.33,-210 414.29,-210 418.25,-213.96 418.25,-217.92 418.25,-217.92 418.25,-225.83 418.25,-225.83 418.25,-229.79 414.29,-233.75 410.33,-233.75"/>
<text text-anchor="middle" x="363.38" y="-216.45" font-family="Arial" font-size="14.00" fill="#cfffac">utils/userUtils.js</text>
</g>
<!-- hooks/useChat.js&#45;&gt;utils/userUtils.js -->
<g id="edge5" class="edge">
<title>hooks/useChat.js&#45;&gt;utils/userUtils.js</title>
<path fill="none" stroke="#757575" d="M166.42,-221.88C205.49,-221.88 256.72,-221.88 296.99,-221.88"/>
<polygon fill="#757575" stroke="#757575" points="296.8,-225.38 306.8,-221.88 296.79,-218.38 296.8,-225.38"/>
</g>
<!-- utils/chatLogic.js&#45;&gt;utils/chatUtils.js -->
<g id="edge16" class="edge">
<title>utils/chatLogic.js&#45;&gt;utils/chatUtils.js</title>
<path fill="none" stroke="#757575" d="M421.37,-189.9C455.05,-195.83 497.79,-203.35 532.72,-209.5"/>
<polygon fill="#757575" stroke="#757575" points="531.82,-212.89 542.27,-211.18 533.03,-206 531.82,-212.89"/>
</g>
<!-- services/llmService.js -->
<g id="node18" class="node">
<title>services/llmService.js</title>
<path fill="none" stroke="#cfffac" d="M663.33,-107.75C663.33,-107.75 533.42,-107.75 533.42,-107.75 529.46,-107.75 525.5,-103.79 525.5,-99.83 525.5,-99.83 525.5,-91.92 525.5,-91.92 525.5,-87.96 529.46,-84 533.42,-84 533.42,-84 663.33,-84 663.33,-84 667.29,-84 671.25,-87.96 671.25,-91.92 671.25,-91.92 671.25,-99.83 671.25,-99.83 671.25,-103.79 667.29,-107.75 663.33,-107.75"/>
<text text-anchor="middle" x="598.38" y="-90.45" font-family="Arial" font-size="14.00" fill="#cfffac">services/llmService.js</text>
</g>
<!-- utils/chatLogic.js&#45;&gt;services/llmService.js -->
<g id="edge15" class="edge">
<title>utils/chatLogic.js&#45;&gt;services/llmService.js</title>
<path fill="none" stroke="#757575" d="M421.16,-177.03C440.27,-174.14 461.09,-168.75 478.25,-158.88 499.56,-146.61 493.35,-129.83 514.25,-116.88 516.69,-115.37 519.22,-113.96 521.84,-112.66"/>
<polygon fill="#757575" stroke="#757575" points="523.07,-115.94 530.84,-108.73 520.27,-109.53 523.07,-115.94"/>
</g>
<!-- hooks/useLogin.js -->
<g id="node9" class="node">
<title>hooks/useLogin.js</title>
<path fill="none" stroke="#c6c5fe" d="M160.33,-191.75C160.33,-191.75 52.17,-191.75 52.17,-191.75 48.21,-191.75 44.25,-187.79 44.25,-183.83 44.25,-183.83 44.25,-175.92 44.25,-175.92 44.25,-171.96 48.21,-168 52.17,-168 52.17,-168 160.33,-168 160.33,-168 164.29,-168 168.25,-171.96 168.25,-175.92 168.25,-175.92 168.25,-183.83 168.25,-183.83 168.25,-187.79 164.29,-191.75 160.33,-191.75"/>
<text text-anchor="middle" x="106.25" y="-174.45" font-family="Arial" font-size="14.00" fill="#c6c5fe">hooks/useLogin.js</text>
</g>
<!-- hooks/useLogin.js&#45;&gt;context/AuthContext.jsx -->
<g id="edge6" class="edge">
<title>hooks/useLogin.js&#45;&gt;context/AuthContext.jsx</title>
<path fill="none" stroke="#757575" d="M168.68,-169.76C200.88,-164.46 240.85,-157.88 276.1,-152.08"/>
<polygon fill="#757575" stroke="#757575" points="276.57,-155.55 285.87,-150.47 275.43,-148.64 276.57,-155.55"/>
</g>
<!-- hooks/useProfileSettings.js -->
<g id="node10" class="node">
<title>hooks/useProfileSettings.js</title>
<path fill="none" stroke="#c6c5fe" d="M187.33,-107.75C187.33,-107.75 25.17,-107.75 25.17,-107.75 21.21,-107.75 17.25,-103.79 17.25,-99.83 17.25,-99.83 17.25,-91.92 17.25,-91.92 17.25,-87.96 21.21,-84 25.17,-84 25.17,-84 187.33,-84 187.33,-84 191.29,-84 195.25,-87.96 195.25,-91.92 195.25,-91.92 195.25,-99.83 195.25,-99.83 195.25,-103.79 191.29,-107.75 187.33,-107.75"/>
<text text-anchor="middle" x="106.25" y="-90.45" font-family="Arial" font-size="14.00" fill="#c6c5fe">hooks/useProfileSettings.js</text>
</g>
<!-- hooks/useProfileSettings.js&#45;&gt;context/AuthContext.jsx -->
<g id="edge7" class="edge">
<title>hooks/useProfileSettings.js&#45;&gt;context/AuthContext.jsx</title>
<path fill="none" stroke="#757575" d="M182.42,-108.25C211.87,-113.1 245.84,-118.69 276.27,-123.7"/>
<polygon fill="#757575" stroke="#757575" points="275.38,-127.1 285.81,-125.27 276.51,-120.19 275.38,-127.1"/>
</g>
<!-- utils/autosuggestUtils.js -->
<g id="node11" class="node">
<title>utils/autosuggestUtils.js</title>
<path fill="none" stroke="#cfffac" d="M433.96,-97.75C433.96,-97.75 292.79,-97.75 292.79,-97.75 288.83,-97.75 284.88,-93.79 284.88,-89.83 284.88,-89.83 284.88,-81.92 284.88,-81.92 284.88,-77.96 288.83,-74 292.79,-74 292.79,-74 433.96,-74 433.96,-74 437.92,-74 441.88,-77.96 441.88,-81.92 441.88,-81.92 441.88,-89.83 441.88,-89.83 441.88,-93.79 437.92,-97.75 433.96,-97.75"/>
<text text-anchor="middle" x="363.38" y="-80.45" font-family="Arial" font-size="14.00" fill="#cfffac">utils/autosuggestUtils.js</text>
</g>
<!-- hooks/useProfileSettings.js&#45;&gt;utils/autosuggestUtils.js -->
<g id="edge8" class="edge">
<title>hooks/useProfileSettings.js&#45;&gt;utils/autosuggestUtils.js</title>
<path fill="none" stroke="#757575" d="M195.41,-92.42C220.51,-91.44 247.87,-90.36 273.05,-89.38"/>
<polygon fill="#757575" stroke="#757575" points="273.08,-92.88 282.93,-88.99 272.8,-85.88 273.08,-92.88"/>
</g>
<!-- hooks/useRecommendations.js -->
<g id="node12" class="node">
<title>hooks/useRecommendations.js</title>
<path fill="none" stroke="#c6c5fe" d="M200.83,-23.75C200.83,-23.75 11.67,-23.75 11.67,-23.75 7.71,-23.75 3.75,-19.79 3.75,-15.83 3.75,-15.83 3.75,-7.92 3.75,-7.92 3.75,-3.96 7.71,0 11.67,0 11.67,0 200.83,0 200.83,0 204.79,0 208.75,-3.96 208.75,-7.92 208.75,-7.92 208.75,-15.83 208.75,-15.83 208.75,-19.79 204.79,-23.75 200.83,-23.75"/>
<text text-anchor="middle" x="106.25" y="-6.45" font-family="Arial" font-size="14.00" fill="#c6c5fe">hooks/useRecommendations.js</text>
</g>
<!-- services/recommendationService.js -->
<g id="node13" class="node">
<title>services/recommendationService.js</title>
<path fill="none" stroke="#c6c5fe" d="M470.33,-34.75C470.33,-34.75 256.42,-34.75 256.42,-34.75 252.46,-34.75 248.5,-30.79 248.5,-26.83 248.5,-26.83 248.5,-18.92 248.5,-18.92 248.5,-14.96 252.46,-11 256.42,-11 256.42,-11 470.33,-11 470.33,-11 474.29,-11 478.25,-14.96 478.25,-18.92 478.25,-18.92 478.25,-26.83 478.25,-26.83 478.25,-30.79 474.29,-34.75 470.33,-34.75"/>
<text text-anchor="middle" x="363.38" y="-17.45" font-family="Arial" font-size="14.00" fill="#c6c5fe">services/recommendationService.js</text>
</g>
<!-- hooks/useRecommendations.js&#45;&gt;services/recommendationService.js -->
<g id="edge9" class="edge">
<title>hooks/useRecommendations.js&#45;&gt;services/recommendationService.js</title>
<path fill="none" stroke="#757575" d="M209.18,-16.27C218.26,-16.66 227.52,-17.06 236.76,-17.46"/>
<polygon fill="#757575" stroke="#757575" points="236.37,-20.95 246.51,-17.88 236.67,-13.95 236.37,-20.95"/>
</g>
<!-- services/recommendationService.js&#45;&gt;data/recommendations.js -->
<g id="edge13" class="edge">
<title>services/recommendationService.js&#45;&gt;data/recommendations.js</title>
<path fill="none" stroke="#757575" d="M478.49,-22.88C486.54,-22.88 494.61,-22.88 502.55,-22.88"/>
<polygon fill="#757575" stroke="#757575" points="502.54,-26.38 512.54,-22.88 502.54,-19.38 502.54,-26.38"/>
</g>
<!-- services/recommendationService.js&#45;&gt;services/llmService.js -->
<g id="edge14" class="edge">
<title>services/recommendationService.js&#45;&gt;services/llmService.js</title>
<path fill="none" stroke="#757575" d="M403.64,-35.18C443.13,-47.55 504.17,-66.67 547.16,-80.14"/>
<polygon fill="#757575" stroke="#757575" points="545.92,-83.42 556.51,-83.07 548.01,-76.74 545.92,-83.42"/>
</g>
<!-- hooks/useRegister.js -->
<g id="node14" class="node">
<title>hooks/useRegister.js</title>
<path fill="none" stroke="#c6c5fe" d="M168.58,-65.75C168.58,-65.75 43.92,-65.75 43.92,-65.75 39.96,-65.75 36,-61.79 36,-57.83 36,-57.83 36,-49.92 36,-49.92 36,-45.96 39.96,-42 43.92,-42 43.92,-42 168.58,-42 168.58,-42 172.54,-42 176.5,-45.96 176.5,-49.92 176.5,-49.92 176.5,-57.83 176.5,-57.83 176.5,-61.79 172.54,-65.75 168.58,-65.75"/>
<text text-anchor="middle" x="106.25" y="-48.45" font-family="Arial" font-size="14.00" fill="#c6c5fe">hooks/useRegister.js</text>
</g>
<!-- hooks/useRegister.js&#45;&gt;context/AuthContext.jsx -->
<g id="edge10" class="edge">
<title>hooks/useRegister.js&#45;&gt;context/AuthContext.jsx</title>
<path fill="none" stroke="#757575" d="M176.93,-62.35C189.16,-65.35 201.49,-69.4 212.5,-74.88 231.66,-84.41 229.67,-96.68 248.5,-106.88 260.11,-113.16 273.1,-118.25 286.03,-122.34"/>
<polygon fill="#757575" stroke="#757575" points="284.81,-125.63 295.39,-125.12 286.8,-118.92 284.81,-125.63"/>
</g>
<!-- hooks/useRegister.js&#45;&gt;utils/autosuggestUtils.js -->
<g id="edge11" class="edge">
<title>hooks/useRegister.js&#45;&gt;utils/autosuggestUtils.js</title>
<path fill="none" stroke="#757575" d="M176.96,-62.62C206.79,-66.36 241.97,-70.77 273.62,-74.74"/>
<polygon fill="#757575" stroke="#757575" points="272.8,-78.17 283.16,-75.94 273.67,-71.22 272.8,-78.17"/>
</g>
<!-- services/accomodationService.js -->
<g id="node15" class="node">
<title>services/accomodationService.js</title>
<path fill="none" stroke="#cfffac" d="M204.58,-317.75C204.58,-317.75 7.92,-317.75 7.92,-317.75 3.96,-317.75 0,-313.79 0,-309.83 0,-309.83 0,-301.92 0,-301.92 0,-297.96 3.96,-294 7.92,-294 7.92,-294 204.58,-294 204.58,-294 208.54,-294 212.5,-297.96 212.5,-301.92 212.5,-301.92 212.5,-309.83 212.5,-309.83 212.5,-313.79 208.54,-317.75 204.58,-317.75"/>
<text text-anchor="middle" x="106.25" y="-300.45" font-family="Arial" font-size="14.00" fill="#cfffac">services/accomodationService.js</text>
</g>
<!-- services/airlineService.js -->
<g id="node16" class="node">
<title>services/airlineService.js</title>
<path fill="none" stroke="#cfffac" d="M180.21,-359.75C180.21,-359.75 32.29,-359.75 32.29,-359.75 28.33,-359.75 24.38,-355.79 24.38,-351.83 24.38,-351.83 24.38,-343.92 24.38,-343.92 24.38,-339.96 28.33,-336 32.29,-336 32.29,-336 180.21,-336 180.21,-336 184.17,-336 188.12,-339.96 188.12,-343.92 188.12,-343.92 188.12,-351.83 188.12,-351.83 188.12,-355.79 184.17,-359.75 180.21,-359.75"/>
<text text-anchor="middle" x="106.25" y="-342.45" font-family="Arial" font-size="14.00" fill="#cfffac">services/airlineService.js</text>
</g>
<!-- services/authService.js -->
<g id="node17" class="node">
<title>services/authService.js</title>
<path fill="none" stroke="#c6c5fe" d="M175.33,-149.75C175.33,-149.75 37.17,-149.75 37.17,-149.75 33.21,-149.75 29.25,-145.79 29.25,-141.83 29.25,-141.83 29.25,-133.92 29.25,-133.92 29.25,-129.96 33.21,-126 37.17,-126 37.17,-126 175.33,-126 175.33,-126 179.29,-126 183.25,-129.96 183.25,-133.92 183.25,-133.92 183.25,-141.83 183.25,-141.83 183.25,-145.79 179.29,-149.75 175.33,-149.75"/>
<text text-anchor="middle" x="106.25" y="-132.45" font-family="Arial" font-size="14.00" fill="#c6c5fe">services/authService.js</text>
</g>
<!-- services/authService.js&#45;&gt;context/AuthContext.jsx -->
<g id="edge12" class="edge">
<title>services/authService.js&#45;&gt;context/AuthContext.jsx</title>
<path fill="none" stroke="#757575" d="M183.45,-137.88C211.58,-137.88 243.71,-137.88 272.9,-137.88"/>
<polygon fill="#757575" stroke="#757575" points="272.85,-141.38 282.85,-137.88 272.85,-134.38 272.85,-141.38"/>
</g>
<!-- utils/animationUtils.js -->
<g id="node19" class="node">
<title>utils/animationUtils.js</title>
<path fill="none" stroke="#cfffac" d="M169.71,-401.75C169.71,-401.75 42.79,-401.75 42.79,-401.75 38.83,-401.75 34.88,-397.79 34.88,-393.83 34.88,-393.83 34.88,-385.92 34.88,-385.92 34.88,-381.96 38.83,-378 42.79,-378 42.79,-378 169.71,-378 169.71,-378 173.67,-378 177.62,-381.96 177.62,-385.92 177.62,-385.92 177.62,-393.83 177.62,-393.83 177.62,-397.79 173.67,-401.75 169.71,-401.75"/>
<text text-anchor="middle" x="106.25" y="-384.45" font-family="Arial" font-size="14.00" fill="#cfffac">utils/animationUtils.js</text>
</g>
<!-- utils/constants.js -->
<g id="node20" class="node">
<title>utils/constants.js</title>
<path fill="none" stroke="#cfffac" d="M155.83,-443.75C155.83,-443.75 56.67,-443.75 56.67,-443.75 52.71,-443.75 48.75,-439.79 48.75,-435.83 48.75,-435.83 48.75,-427.92 48.75,-427.92 48.75,-423.96 52.71,-420 56.67,-420 56.67,-420 155.83,-420 155.83,-420 159.79,-420 163.75,-423.96 163.75,-427.92 163.75,-427.92 163.75,-435.83 163.75,-435.83 163.75,-439.79 159.79,-443.75 155.83,-443.75"/>
<text text-anchor="middle" x="106.25" y="-426.45" font-family="Arial" font-size="14.00" fill="#cfffac">utils/constants.js</text>
</g>
<!-- utils/navigationUtils.js -->
<g id="node21" class="node">
<title>utils/navigationUtils.js</title>
<path fill="none" stroke="#cfffac" d="M170.83,-485.75C170.83,-485.75 41.67,-485.75 41.67,-485.75 37.71,-485.75 33.75,-481.79 33.75,-477.83 33.75,-477.83 33.75,-469.92 33.75,-469.92 33.75,-465.96 37.71,-462 41.67,-462 41.67,-462 170.83,-462 170.83,-462 174.79,-462 178.75,-465.96 178.75,-469.92 178.75,-469.92 178.75,-477.83 178.75,-477.83 178.75,-481.79 174.79,-485.75 170.83,-485.75"/>
<text text-anchor="middle" x="106.25" y="-468.45" font-family="Arial" font-size="14.00" fill="#cfffac">utils/navigationUtils.js</text>
</g>
<!-- utils/travelOptions.js -->
<g id="node22" class="node">
<title>utils/travelOptions.js</title>
<path fill="none" stroke="#cfffac" d="M167.08,-527.75C167.08,-527.75 45.42,-527.75 45.42,-527.75 41.46,-527.75 37.5,-523.79 37.5,-519.83 37.5,-519.83 37.5,-511.92 37.5,-511.92 37.5,-507.96 41.46,-504 45.42,-504 45.42,-504 167.08,-504 167.08,-504 171.04,-504 175,-507.96 175,-511.92 175,-511.92 175,-519.83 175,-519.83 175,-523.79 171.04,-527.75 167.08,-527.75"/>
<text text-anchor="middle" x="106.25" y="-510.45" font-family="Arial" font-size="14.00" fill="#cfffac">utils/travelOptions.js</text>
</g>
</g>
</svg>
