<svg width="32" height="32" viewBox="0 0 32 32" fill="none" xmlns="http://www.w3.org/2000/svg">
  <circle cx="16" cy="16" r="14" fill="#2563eb" stroke="#1d4ed8" stroke-width="2"/>
  <path d="M16 2c-7.732 0-14 6.268-14 14s6.268 14 14 14 14-6.268 14-14S23.732 2 16 2zm0 2c6.627 0 12 5.373 12 12s-5.373 12-12 12S4 22.627 4 16 9.373 4 16 4z" fill="#1e40af"/>
  <path d="M16 4c-2.5 0-4.5 5.373-4.5 12s2 12 4.5 12 4.5-5.373 4.5-12S18.5 4 16 4z" fill="#3b82f6"/>
  <path d="M8 16c0-1.5 3.582-2.5 8-2.5s8 1 8 2.5-3.582 2.5-8 2.5-8-1-8-2.5z" fill="#60a5fa"/>
  <path d="M10 12c0-1 2.686-1.5 6-1.5s6 0.5 6 1.5-2.686 1.5-6 1.5-6-0.5-6-1.5z" fill="#93c5fd"/>
  <path d="M10 20c0-1 2.686-1.5 6-1.5s6 0.5 6 1.5-2.686 1.5-6 1.5-6-0.5-6-1.5z" fill="#93c5fd"/>
</svg>
